<svg width="43" height="43" viewBox="0 0 43 43" fill="none" xmlns="http://www.w3.org/2000/svg">
<g clip-path="url(#clip0_104_109)">
<path fill-rule="evenodd" clip-rule="evenodd" d="M21.5 40.3125C26.4894 40.3125 31.2744 38.3305 34.8024 34.8024C38.3305 31.2744 40.3125 26.4894 40.3125 21.5C40.3125 16.5106 38.3305 11.7256 34.8024 8.19755C31.2744 4.66952 26.4894 2.6875 21.5 2.6875C16.5106 2.6875 11.7256 4.66952 8.19755 8.19756C4.66952 11.7256 2.6875 16.5106 2.6875 21.5C2.6875 26.4894 4.66952 31.2744 8.19755 34.8024C11.7256 38.3305 16.5106 40.3125 21.5 40.3125ZM21.5 -9.39795e-07C27.2022 -1.18904e-06 32.6708 2.26517 36.7028 6.2972C40.7348 10.3292 43 15.7978 43 21.5C43 27.2022 40.7348 32.6708 36.7028 36.7028C32.6708 40.7348 27.2022 43 21.5 43C15.7978 43 10.3292 40.7348 6.2972 36.7028C2.26517 32.6708 -6.90546e-07 27.2022 -9.39795e-07 21.5C-1.18904e-06 15.7978 2.26517 10.3292 6.2972 6.2972C10.3292 2.26517 15.7978 -6.90546e-07 21.5 -9.39795e-07ZM12.0937 20.1562C11.7374 20.1562 11.3956 20.2978 11.1436 20.5498C10.8916 20.8018 10.75 21.1436 10.75 21.5C10.75 21.8564 10.8916 22.1982 11.1436 22.4502C11.3956 22.7022 11.7374 22.8437 12.0937 22.8437L27.6624 22.8437L21.8924 28.6111C21.6401 28.8634 21.4983 29.2057 21.4983 29.5625C21.4983 29.9193 21.6401 30.2616 21.8924 30.5139C22.1447 30.7662 22.4869 30.9079 22.8437 30.9079C23.2006 30.9079 23.5428 30.7662 23.7951 30.5139L31.8576 22.4514C31.9828 22.3266 32.082 22.1783 32.1498 22.015C32.2175 21.8518 32.2524 21.6767 32.2524 21.5C32.2524 21.3232 32.2175 21.1482 32.1498 20.985C32.082 20.8217 31.9828 20.6734 31.8576 20.5486L23.7951 12.4861C23.5428 12.2338 23.2006 12.0921 22.8437 12.0921C22.4869 12.0921 22.1447 12.2338 21.8924 12.4861C21.6401 12.7384 21.4983 13.0807 21.4983 13.4375C21.4983 13.7943 21.6401 14.1366 21.8924 14.3889L27.6624 20.1562L12.0937 20.1562Z" fill="#D9D9D9"/>
</g>
<defs>
<clipPath id="clip0_104_109">
<rect width="43" height="43" fill="white" transform="translate(0 43) rotate(-90)"/>
</clipPath>
</defs>
</svg>
