<svg width="11" height="17" viewBox="0 0 11 17" fill="none" xmlns="http://www.w3.org/2000/svg">
<path d="M4.93472 15.8823C0.772444 9.21198 0 8.52793 0 6.07739C0 2.72065 2.46217 0 5.5 0C8.53783 0 11 2.72065 11 6.07739C11 8.52793 10.2276 9.21063 6.06528 15.8796C6.00207 15.9801 5.9178 16.0624 5.81966 16.1192C5.72151 16.1761 5.61238 16.206 5.50155 16.2062C5.39073 16.2065 5.28148 16.1772 5.18311 16.1208C5.08474 16.0644 5.00016 15.9825 4.93656 15.8823L4.93533 15.8796L4.93472 15.8823ZM5.5 8.60964C6.10779 8.60964 6.69068 8.34285 7.12045 7.86796C7.55022 7.39307 7.79167 6.74899 7.79167 6.07739C7.79167 5.4058 7.55022 4.76171 7.12045 4.28682C6.69068 3.81194 6.10779 3.54515 5.5 3.54515C4.89221 3.54515 4.30932 3.81194 3.87955 4.28682C3.44978 4.76171 3.20833 5.4058 3.20833 6.07739C3.20833 6.74899 3.44978 7.39307 3.87955 7.86796C4.30932 8.34285 4.89221 8.60964 5.5 8.60964V8.60964Z" fill="black"/>
</svg>
