<svg width="23" height="23" viewBox="0 0 23 23" fill="none" xmlns="http://www.w3.org/2000/svg">
<path d="M20.1774 18.1197C19.6223 17.588 19.0821 17.0411 18.5573 16.4795C18.1164 16.0315 17.851 15.7056 17.851 15.7056L14.5327 14.1211C15.8612 12.6144 16.5944 10.6748 16.5948 8.66603C16.5948 4.09267 12.8735 0.370224 8.29895 0.370224C3.72441 0.370224 0.00315094 4.09267 0.00315094 8.66603C0.00315094 13.2394 3.72441 16.9618 8.29895 16.9618C10.3883 16.9618 12.2928 16.1797 13.754 14.9009L15.3385 18.2192C15.3385 18.2192 15.6644 18.4847 16.1124 18.9256C16.5711 19.3558 17.1743 19.9377 17.7526 20.5456L19.362 22.1953L20.0778 22.9609L22.5914 20.4472L21.8258 19.7314C21.3767 19.2906 20.777 18.7051 20.1774 18.1197ZM8.29895 14.5916C5.03159 14.5916 2.37338 11.9334 2.37338 8.66603C2.37338 5.39866 5.03159 2.74045 8.29895 2.74045C11.5663 2.74045 14.2245 5.39866 14.2245 8.66603C14.2245 11.9334 11.5663 14.5916 8.29895 14.5916Z" fill="white"/>
</svg>
